<?xml version="1.0" encoding="utf-8"?>
<svg class="frog" viewBox="0 0 100 100" xmlns="http://www.w3.org/2000/svg" xmlns:bx="https://boxy-svg.com">
  <path d="M 90.023 73.561 C 87.554 77.076 84.878 80.206 82.189 82.819 C 82.604 82.814 83.028 82.816 83.458 82.824 C 89.021 82.935 93.559 84.157 93.592 85.554 C 93.614 86.449 91.781 87.199 88.999 87.593 C 93.59 88.838 96.703 90.449 96.442 91.618 C 96.169 92.847 92.25 93.206 87.116 92.609 C 90.119 94.17 91.882 95.614 91.537 96.43 C 90.957 97.8 84.666 96.888 77.484 94.394 C 74.369 93.312 71.598 92.11 69.507 90.984 C 67.602 91.436 65.938 91.328 64.643 90.571 C 59.383 87.499 62.219 74.902 70.977 62.435 C 79.734 49.968 91.098 42.353 96.358 45.425 C 101.617 48.497 98.781 61.094 90.023 73.561 Z" style="stroke: rgb(0, 0, 0); fill: rgb(70, 118, 180);" class="back-legs"/>
  <path d="M 6.24 85.554 C 6.274 84.157 10.866 82.935 16.496 82.825 C 16.866 82.818 17.232 82.815 17.592 82.818 C 14.907 80.205 12.241 77.076 9.79 73.561 C 1.094 61.095 -1.606 48.498 3.756 45.426 C 9.12 42.353 20.516 49.969 29.211 62.436 C 37.906 74.902 40.607 87.499 35.244 90.571 C 33.971 91.3 32.359 91.428 30.524 91.031 C 28.417 92.144 25.648 93.327 22.54 94.394 C 15.272 96.888 8.907 97.8 8.32 96.43 C 7.971 95.614 9.755 94.17 12.794 92.609 C 7.598 93.206 3.633 92.847 3.357 91.618 C 3.093 90.449 6.243 88.838 10.888 87.593 C 8.072 87.199 6.219 86.449 6.24 85.554 Z" style="stroke: rgb(0, 0, 0); fill: rgb(70, 118, 180);" class="back-legs"/>
  <ellipse cx="50" cy="65.729" rx="29.51" ry="25.521" style="stroke: rgb(0, 0, 0); fill: rgb(114, 163, 226);" class="torso"/>
  <ellipse cx="50" cy="62.176" rx="20.093" ry="22.849" style="stroke: rgb(0, 0, 0); fill: rgb(180, 207, 242);" class="front-legs"/>
  <path d="M 73.576 98.11 C 73.49 98.95 71.148 99.366 68.345 99.039 C 67.323 98.921 66.382 98.72 65.601 98.472 C 65.152 99.179 64.341 99.656 63.479 99.64 C 62.555 99.623 61.842 99.043 61.637 98.239 C 60.541 98.684 59.081 99.093 57.459 99.377 C 53.895 99.999 50.895 99.783 50.759 98.892 C 50.643 98.137 52.626 97.139 55.407 96.473 C 53.252 95.732 51.823 94.765 51.962 94.023 C 52.147 93.034 55.043 92.818 58.431 93.54 C 58.764 93.611 59.09 93.689 59.406 93.772 C 58.965 92.903 58.89 92.087 59.289 91.646 C 59.839 91.039 61.107 91.348 62.279 92.318 C 65.823 86.009 72.672 73.525 72.45 71.662 C 72.148 69.133 56.907 61.667 52.205 63.734 C 52.205 63.734 65.736 47.72 66.409 48.783 C 70.685 55.541 75.547 61.571 81.33 66.868 C 84.977 70.209 71.53 90.869 68.135 95.948 C 68.306 95.963 68.479 95.981 68.654 96.001 C 71.458 96.326 73.661 97.271 73.576 98.11 Z" style="stroke: rgb(0, 0, 0); fill: rgb(180, 207, 242);" class="front-legs"/>
  <path d="M 47.795 63.743 C 43.093 61.675 27.852 69.146 27.55 71.677 C 27.328 73.538 34.161 86.002 37.709 92.323 C 38.883 91.345 40.158 91.031 40.71 91.64 C 41.109 92.081 41.035 92.897 40.593 93.767 C 40.91 93.684 41.235 93.606 41.569 93.535 C 44.957 92.813 47.853 93.029 48.038 94.018 C 48.177 94.761 46.748 95.729 44.594 96.471 C 47.374 97.137 49.356 98.136 49.241 98.892 C 49.105 99.783 46.105 100 42.541 99.376 C 40.919 99.093 39.459 98.684 38.363 98.239 C 38.158 99.043 37.445 99.623 36.521 99.64 C 35.66 99.656 34.848 99.177 34.399 98.47 C 33.618 98.719 32.676 98.92 31.655 99.039 C 28.852 99.366 26.51 98.948 26.424 98.109 C 26.339 97.269 28.542 96.324 31.346 95.997 C 31.514 95.978 31.68 95.961 31.844 95.947 C 28.415 90.812 15.03 70.215 18.67 66.879 C 24.453 61.579 29.315 55.546 33.591 48.783 C 34.264 47.72 47.795 63.743 47.795 63.743 Z" style="stroke: rgb(0, 0, 0); fill: rgb(180, 207, 242);" class="front-legs"/>
  <path d="M 33.941 49.488 L 65.951 49.488 L 49.946 81.919 Z" style="fill: rgb(180, 207, 242);" class="front-legs"/>
  <ellipse cx="50" cy="26.946" rx="40" ry="25" style="stroke: rgb(0, 0, 0); fill: rgb(114, 163, 226);" class="head"/>
  <ellipse cx="25" cy="16" rx="15" ry="15" style="stroke: rgb(0, 0, 0); fill: rgb(114, 163, 226);" class="head"/>
  <ellipse cx="15.526" cy="27.05" rx="3.707" ry="6.564" style="fill: rgb(70, 118, 180);" class="cheek"/>
  <ellipse cx="84.475" cy="27.05" rx="3.707" ry="6.564" style="fill: rgb(70, 118, 180);" class="cheek"/>
  <ellipse cx="75" cy="16" rx="15" ry="15" style="stroke: rgb(0, 0, 0); fill: rgb(114, 163, 226);" class="head"/>
  <rect x="21.105" y="16.982" width="58.658" height="19.653" style="fill: rgb(114, 163, 226);" transform="matrix(0.999981, 0.006181, 0, 1.000019, 0.000002, -5.164763)" class="head"/>
  <ellipse cx="22.008" cy="16" rx="15" ry="15" style="stroke: rgb(0, 0, 0); fill: rgb(255, 255, 255);" class="eyes"/>
  <ellipse cx="78.326" cy="16" rx="15" ry="15" style="stroke: rgb(0, 0, 0); fill: rgb(255, 255, 255);" class="eyes"/>
  <path d="M -22.656 12.57 Z" style="stroke: black; fill: none;"/>
  <path d="M 71.654 14.914 L 74.852 14.225 C 75.29 12.934 76.376 11.899 77.806 11.591 C 79.237 11.283 80.653 11.78 81.584 12.777 L 84.781 12.088 C 85.891 11.849 86.983 12.555 87.222 13.664 C 87.461 14.774 86.755 15.867 85.646 16.105 L 82.449 16.793 C 82.011 18.085 80.924 19.121 79.494 19.429 C 78.063 19.737 76.646 19.24 75.716 18.242 L 72.518 18.931 C 71.409 19.17 70.316 18.464 70.077 17.354 C 69.839 16.244 70.544 15.153 71.654 14.914 Z" class="pupil"/>
  <path d="M 29.027 14.914 C 30.137 15.153 30.842 16.244 30.604 17.354 C 30.365 18.464 29.272 19.17 28.163 18.931 L 24.965 18.242 C 24.035 19.24 22.618 19.737 21.187 19.429 C 19.757 19.121 18.67 18.085 18.232 16.793 L 15.035 16.105 C 13.926 15.867 13.22 14.774 13.459 13.664 C 13.698 12.555 14.79 11.849 15.9 12.088 L 19.097 12.777 C 20.028 11.78 21.444 11.283 22.875 11.591 C 24.305 11.899 25.391 12.934 25.829 14.225 Z" class="pupil"/>
  <ellipse transform="matrix(0.999998, 0, 0, 1.000001, -24.188247, -14.047031)" cx="71.09" cy="36.577" rx="1.77" ry="1.77" style="" class="nostril"/>
  <ellipse transform="matrix(0.999998, 0, 0, 1.000001, -17.993556, -14.047071)" cx="71.09" cy="36.577" rx="1.77" ry="1.77" style="" class="nostril"/>
  <path d="M 39.951 6.139 L 59.973 6.139 L 49.962 17.185 Z" style="fill: rgb(255, 153, 0); stroke: rgb(0, 0, 0);" class="forehead"/>
  <path d="M 13.413 37.067 C 22.347 34.212 35.427 32.412 50 32.412 C 64.573 32.412 77.653 34.212 86.587 37.067 C 80.37 45.832 66.327 51.946 50 51.946 C 33.673 51.946 19.63 45.832 13.413 37.067 Z" style="stroke: rgb(0, 0, 0); fill: rgb(180, 207, 242);" class="chin"/>
  <path d="M 69.952 33.61 C 65.935 35.255 58.782 36.349 50.627 36.349 C 42.276 36.349 34.976 35.202 31.019 33.491 C 36.853 32.796 43.267 32.412 50 32.412 C 57.109 32.412 63.862 32.84 69.952 33.61 Z" style="" class="mouth"/>
  <path style="fill: rgb(216, 216, 216); stroke: rgb(0, 0, 0);" d="M 81.714 67.143 L 87.943 58.497"/>
  <path style="fill: rgb(216, 216, 216); stroke: rgb(0, 0, 0);" d="M 13.594 60.84 L 19.823 69.486" transform="matrix(-1, 0, 0, -1, 31.934499, 128.285539)" bx:origin="0.381 0.382"/>
  <path style="fill: rgb(216, 216, 216); stroke: rgb(0, 0, 0);" d="M 90.266 87.875 L 84.688 86.852"/>
  <path style="fill: rgb(216, 216, 216); stroke: rgb(0, 0, 0);" d="M 87.616 92.764 L 80.922 90.533"/>
  <path style="fill: rgb(216, 216, 216); stroke: rgb(0, 0, 0);" d="M 18.28 90.778 L 11.586 93.009" transform="matrix(-1, 0, 0, -1, 29.866002, 183.78701)"/>
  <path style="fill: rgb(216, 216, 216); stroke: rgb(0, 0, 0);" d="M 15.195 86.821 L 9.617 87.844" transform="matrix(-1, 0, 0, -1, 24.811999, 174.665003)"/>
  <line style="stroke: rgb(0, 0, 0);" x1="57.629" y1="96.05" x2="54.609" y2="96.592"/>
  <line style="stroke: rgb(0, 0, 0);" x1="44.562" y1="96.475" x2="41.542" y2="95.933" transform="matrix(-1, 0, 0, -1, 86.104003, 192.407985)"/>
  <path style="stroke: rgb(0, 0, 0); fill: none;" d="M 4.497 57.087 C 4.497 57.087 3.195 54.652 3.412 51.588 C 3.615 48.712 4.652 48.257 4.652 48.257"/>
  <path style="stroke: rgb(0, 0, 0); fill: none;" d="M 81.33 54.841 C 81.33 54.841 82.879 53.202 84.661 51.742 C 86.448 50.278 88.224 49.496 88.224 49.496"/>
</svg>